<?xml version="1.0" standalone="no"?>
<!DOCTYPE svg PUBLIC "-//W3C//DTD SVG 20010904//EN"
 "http://www.w3.org/TR/2001/REC-SVG-20010904/DTD/svg10.dtd">
<svg version="1.0" xmlns="http://www.w3.org/2000/svg"
 width="470.000000pt" height="470.000000pt" viewBox="0 0 470.000000 470.000000"
 preserveAspectRatio="xMidYMid meet">
<metadata>
Created by potrace 1.14, written by Peter Selinger 2001-2017
</metadata>
<g transform="translate(0.000000,470.000000) scale(0.100000,-0.100000)"
fill="#000000" stroke="none">
<path d="M985 4352 c-55 -13 -105 -73 -109 -130 -4 -57 26 -106 94 -152 76
-52 97 -81 82 -116 -18 -39 -54 -50 -119 -36 -31 6 -64 19 -73 27 -16 15 -18
13 -28 -26 -13 -53 -2 -66 70 -81 102 -21 195 12 230 82 40 79 13 148 -80 208
-76 48 -98 76 -86 111 16 45 92 52 175 17 23 -10 35 62 14 83 -14 14 -129 23
-170 13z"/>
<path d="M3663 4346 c-139 -45 -212 -159 -200 -311 9 -128 77 -194 206 -202
85 -6 110 4 126 50 7 20 10 38 8 41 -2 2 -20 0 -39 -5 -46 -13 -123 -3 -154
19 -42 31 -62 80 -58 143 5 71 34 126 86 163 34 24 52 30 99 30 32 0 69 -2 82
-4 21 -4 26 0 33 29 6 21 6 37 -1 44 -16 16 -142 18 -188 3z"/>
<path d="M119 4348 c-2 -10 -8 -37 -12 -63 -15 -84 -21 -120 -22 -125 0 -3 -4
-27 -9 -53 -4 -27 -9 -59 -12 -70 -2 -12 -7 -35 -9 -52 -3 -16 -10 -54 -15
-84 -6 -30 -10 -56 -10 -58 0 -8 90 -2 91 7 1 6 2 13 3 18 1 4 8 44 16 90 l14
82 92 0 c51 0 95 3 97 8 3 4 8 22 12 40 l7 32 -97 0 -96 0 5 38 c3 20 8 53 12
73 l5 36 98 0 c54 0 103 3 108 6 5 3 9 21 8 39 l-2 33 -141 3 c-78 1 -142 1
-143 0z"/>
<path d="M475 4133 c-60 -119 -118 -234 -127 -255 l-17 -38 43 0 43 0 34 70
33 70 87 0 87 0 7 -47 c13 -93 13 -93 61 -93 39 0 42 2 39 22 -3 12 -7 40 -10
63 -3 22 -8 51 -10 65 -9 47 -17 95 -20 120 -2 14 -6 39 -9 55 -3 17 -8 50
-11 75 -4 25 -9 52 -10 60 -2 8 -4 23 -4 33 -1 14 -10 17 -53 17 l-53 0 -110
-217z m150 95 c4 -27 14 -102 21 -140 4 -28 4 -28 -56 -28 -33 0 -60 2 -60 5
0 3 13 33 28 68 16 34 35 76 42 94 16 35 21 35 25 1z"/>
<path d="M1222 4313 c-6 -20 -10 -38 -8 -40 1 -2 35 -4 74 -4 62 -1 70 -3 67
-19 -2 -10 -6 -33 -9 -51 -3 -19 -8 -51 -11 -73 -4 -21 -9 -48 -11 -60 -8 -41
-25 -141 -30 -183 l-6 -43 41 0 c51 0 45 -13 76 175 21 126 24 143 36 203 l10
52 69 -1 c37 -1 72 1 77 4 5 4 10 22 11 42 l1 35 -188 0 -188 0 -11 -37z"/>
<path d="M1782 4313 c-6 -20 -10 -38 -8 -40 1 -2 35 -4 74 -4 59 -1 70 -4 67
-18 -1 -9 -6 -36 -10 -61 -4 -25 -9 -52 -10 -61 -2 -9 -6 -34 -9 -55 -4 -22
-8 -46 -11 -54 -2 -8 -6 -31 -9 -50 -2 -19 -8 -56 -11 -82 l-7 -48 40 0 c47 0
48 1 56 56 4 22 9 51 11 64 8 37 13 70 20 120 4 24 8 47 10 50 1 3 6 25 9 50
13 92 7 85 77 87 35 1 72 2 82 2 13 1 17 10 17 41 l0 40 -188 0 -189 0 -11
-37z"/>
<path d="M2219 4338 c-1 -7 -1 -15 -1 -18 0 -3 3 -48 6 -100 3 -52 8 -117 11
-145 6 -56 14 -165 14 -208 1 -27 2 -28 54 -25 l52 3 77 190 c42 105 78 194
80 198 2 5 5 -38 6 -95 2 -57 5 -125 7 -153 1 -27 3 -72 4 -98 l1 -48 52 3 52
3 47 110 c27 61 52 121 58 135 6 14 32 77 60 140 l49 115 -35 3 c-19 2 -41 1
-48 -1 -12 -5 -49 -93 -129 -307 l-35 -95 -1 50 c-1 28 -3 86 -5 130 -1 44 -3
113 -4 153 l-1 72 -53 0 c-51 0 -53 -1 -68 -37 -35 -82 -129 -332 -129 -344 0
-7 -3 -10 -6 -7 -3 4 -8 42 -10 85 -2 43 -6 105 -8 138 -3 33 -5 84 -5 113
l-1 52 -45 0 c-29 0 -45 -5 -46 -12z"/>
<path d="M2926 4333 c-6 -19 -13 -57 -22 -113 -3 -19 -7 -46 -10 -60 -2 -14
-7 -45 -10 -70 -3 -25 -8 -47 -9 -50 -2 -3 -6 -26 -10 -50 -3 -25 -10 -63 -15
-85 -15 -64 -14 -65 34 -65 48 0 47 -1 60 85 7 46 35 207 41 235 3 14 10 52
15 85 5 33 12 70 14 83 4 20 1 22 -39 22 -33 0 -45 -4 -49 -17z"/>
<path d="M3072 4313 c-6 -20 -9 -39 -6 -42 2 -3 36 -4 74 -3 63 2 69 0 65 -17
-2 -10 -6 -36 -9 -57 -8 -49 -34 -201 -41 -234 -3 -14 -8 -47 -11 -73 l-7 -48
44 3 c48 3 43 -6 64 118 3 20 8 47 10 60 3 14 8 41 11 60 3 19 7 42 9 50 2 8
7 35 10 60 10 74 13 80 48 78 18 0 53 0 78 1 l47 1 0 40 1 40 -188 0 -188 0
-11 -37z"/>
<path d="M3947 4343 c-3 -5 -8 -30 -12 -58 -5 -27 -9 -57 -11 -65 -1 -8 -6
-35 -10 -60 -4 -25 -8 -49 -10 -55 -1 -5 -5 -28 -8 -50 -10 -63 -26 -157 -32
-187 -5 -27 -4 -28 40 -28 30 0 46 4 47 13 0 6 2 21 5 32 2 11 7 38 10 60 3
22 9 56 13 75 l7 35 103 3 104 3 -7 -38 c-3 -21 -8 -49 -11 -63 -3 -14 -8 -43
-10 -64 -3 -21 -8 -43 -11 -48 -3 -5 15 -8 42 -6 48 3 49 3 55 43 4 22 10 54
13 70 3 17 9 50 12 75 3 25 8 47 9 50 2 3 6 24 9 46 4 22 9 51 11 64 7 37 25
144 25 153 0 4 -20 7 -44 7 -42 0 -44 -2 -49 -32 -3 -18 -11 -66 -18 -105
l-12 -73 -104 0 c-102 0 -103 0 -99 23 9 40 19 102 21 122 1 11 4 25 5 30 7
27 -2 35 -39 35 -22 0 -42 -3 -44 -7z"/>
<path d="M1360 3552 c-46 -3 -167 -29 -205 -44 -77 -28 -195 -90 -245 -127
-74 -55 -176 -156 -202 -200 -12 -20 -24 -38 -27 -41 -5 -4 -36 -59 -62 -110
-30 -58 -57 -141 -65 -196 -2 -21 -7 -50 -10 -64 -10 -42 -12 -196 -4 -242 4
-24 11 -62 14 -86 9 -72 38 -171 72 -249 8 -17 14 -34 14 -38 0 -17 133 -271
150 -285 15 -14 41 -63 35 -68 -11 -11 -156 -9 -163 3 -3 5 -7 62 -7 125 -1
120 -6 139 -49 179 -46 43 -224 45 -280 4 -27 -20 -46 -54 -46 -83 0 -18 -7
-20 -87 -20 -95 0 -146 -19 -161 -60 -6 -15 -9 -715 -3 -767 0 -6 16 -22 33
-35 28 -19 47 -23 118 -25 47 0 88 -2 93 -2 4 -1 7 -10 7 -22 0 -22 16 -57 34
-74 28 -27 78 -37 168 -33 82 3 98 6 125 28 41 34 49 65 48 203 0 97 3 117 15
118 8 0 132 2 275 2 l260 2 64 -60 c36 -33 81 -76 100 -95 37 -37 171 -155
256 -225 26 -22 59 -50 74 -62 14 -13 29 -23 32 -23 4 0 22 -13 40 -30 55 -48
296 -219 324 -230 34 -13 87 -13 122 1 29 11 153 95 208 142 18 15 37 27 43
27 6 0 12 3 14 8 2 4 32 30 68 57 166 129 388 323 519 456 64 66 149 157 171
185 14 17 49 60 78 95 70 84 72 86 112 144 19 28 37 52 40 55 9 9 56 83 93
145 106 182 180 384 206 565 10 66 7 260 -4 315 -8 40 -36 136 -45 155 -69
145 -80 157 -124 140 -34 -13 -42 -50 -20 -91 10 -19 19 -36 19 -39 1 -3 7
-18 14 -35 43 -101 61 -208 56 -335 -2 -58 -7 -118 -10 -135 -11 -61 -38 -160
-47 -170 -4 -5 -8 -15 -8 -23 0 -30 -110 -260 -167 -346 -80 -124 -91 -140
-148 -211 -31 -38 -68 -85 -83 -104 -90 -114 -340 -364 -487 -486 -32 -28 -66
-57 -75 -65 -89 -84 -424 -331 -468 -344 -23 -8 -89 20 -119 49 -8 9 -36 29
-61 47 -26 17 -48 35 -50 40 -2 4 -8 8 -13 8 -9 0 -217 162 -263 204 -6 6 -38
34 -71 61 -32 28 -78 68 -101 90 -23 22 -58 54 -76 71 -19 16 -37 34 -40 40
-7 11 488 12 499 0 4 -4 8 -62 9 -129 1 -142 14 -180 69 -203 47 -19 197 -19
235 1 25 13 80 75 66 75 -3 0 -2 10 3 22 7 20 15 22 92 23 97 2 131 15 159 62
19 32 20 52 20 373 0 344 -3 379 -39 410 -38 33 -63 40 -145 40 l-84 0 -6 33
c-6 34 -33 65 -72 85 -36 19 -185 17 -227 -3 -61 -29 -70 -53 -71 -191 -1 -68
-5 -126 -9 -131 -5 -4 -51 -8 -103 -8 -80 -1 -96 -4 -108 -20 -14 -20 -15 -26
-2 -62 9 -27 -2 -25 121 -27 l100 -1 0 -116 1 -115 -613 0 c-337 0 -613 2
-614 5 -7 38 -2 221 6 222 5 1 188 2 405 3 217 1 405 5 417 10 40 13 32 90
-11 98 -11 2 -130 3 -262 3 l-242 0 -61 93 c-56 84 -145 248 -179 329 -50 120
-92 335 -87 448 14 306 159 537 435 691 97 55 222 83 363 82 94 0 205 -16 260
-37 12 -5 25 -9 30 -10 14 -2 140 -72 176 -99 20 -14 72 -62 116 -106 79 -80
80 -81 131 -80 51 0 51 0 143 92 51 51 96 92 101 92 5 0 15 6 23 14 29 30 177
99 238 112 93 19 126 23 223 22 106 -1 175 -12 266 -46 57 -20 142 -66 168
-89 7 -7 17 -13 21 -13 4 0 27 -18 51 -40 48 -42 79 -50 104 -24 40 40 7 89
-114 170 -86 57 -216 117 -282 129 -13 3 -45 10 -73 17 -107 25 -326 9 -440
-34 -166 -61 -339 -180 -408 -278 l-16 -23 -72 73 c-192 193 -464 294 -729
272z m-818 -1534 c4 -11 3 -890 -1 -910 -1 -10 -151 -10 -152 0 -1 4 -2 112
-3 240 -1 219 -2 235 -20 248 -26 18 -51 18 -70 -2 -19 -18 -17 -3 -21 -194
-1 -85 -3 -157 -4 -160 0 -3 -34 -6 -73 -5 l-73 0 0 330 0 330 75 0 74 0 3
-47 c3 -64 17 -88 52 -88 47 0 56 21 58 139 1 58 2 112 2 119 1 8 23 12 75 12
50 0 75 -4 78 -12z m1603 -453 l0 -460 -69 -3 c-38 -2 -72 1 -75 7 -5 7 -7
861 -2 909 1 10 20 12 74 10 l72 -3 0 -460z m270 0 l0 -330 -75 0 -75 0 -3
320 c-1 176 0 326 3 333 3 9 25 12 77 10 l73 -3 0 -330z"/>
<path d="M4050 3392 c0 -47 3 -50 59 -57 41 -5 57 -8 114 -20 l27 -5 0 -95 c0
-52 1 -95 3 -95 1 -1 19 -3 40 -6 l37 -6 0 94 0 94 68 -10 c37 -5 69 -11 72
-13 3 -3 6 -46 7 -96 1 -51 2 -98 2 -104 1 -8 16 -13 41 -13 l40 0 0 144 0
144 -47 7 c-27 5 -55 9 -63 11 -27 5 -105 18 -120 20 -8 1 -28 5 -45 8 -113
22 -145 27 -187 32 l-48 6 0 -40z"/>
<path d="M4050 3007 l0 -45 63 -11 c73 -13 107 -19 145 -26 15 -3 42 -8 61
-11 18 -3 43 -8 55 -10 11 -2 48 -9 81 -14 33 -5 70 -12 83 -14 20 -4 22 -1
22 39 0 24 -3 46 -7 48 -5 3 -29 8 -55 11 -39 5 -124 20 -298 51 -19 4 -44 8
-55 10 -11 1 -37 6 -57 10 l-38 7 0 -45z"/>
<path d="M1845 2930 c-12 -4 -25 -14 -31 -21 -9 -13 -49 -135 -59 -183 -3 -10
-16 -55 -31 -100 -14 -44 -28 -89 -29 -99 -2 -9 -16 -52 -31 -95 -27 -79 -32
-96 -33 -121 -1 -22 -17 -1 -30 39 -6 19 -11 37 -10 40 0 3 -9 29 -20 58 -11
28 -19 52 -17 52 2 0 -7 31 -19 69 -13 38 -27 85 -30 104 -13 70 -12 70 -327
71 -156 1 -291 -2 -301 -7 -29 -13 -40 -56 -22 -83 l15 -24 266 0 c203 0 266
-3 268 -12 3 -7 19 -60 37 -118 18 -58 34 -109 35 -115 1 -5 9 -32 17 -60 43
-138 67 -219 67 -229 1 -39 67 -68 94 -41 14 14 87 232 119 355 8 30 24 82 35
115 11 33 25 79 31 103 7 23 15 42 19 42 5 0 16 -29 27 -65 10 -36 24 -70 31
-76 8 -7 112 -11 294 -11 256 -1 282 1 300 17 11 10 20 29 20 43 0 49 -16 51
-287 52 l-252 0 -26 88 c-15 48 -33 104 -41 125 -7 20 -12 37 -9 37 9 0 -26
48 -38 53 -7 2 -21 1 -32 -3z"/>
<path d="M4479 2819 c0 -8 -1 -40 -1 -72 0 -31 -3 -59 -7 -61 -6 -4 -30 0
-136 20 -16 3 -41 8 -55 9 -14 2 -63 11 -110 19 -121 23 -120 23 -120 -23 0
-45 2 -47 50 -55 45 -7 208 -35 240 -41 13 -3 42 -7 65 -10 71 -10 72 -11 73
-63 0 -119 -2 -112 42 -112 l40 0 0 189 0 189 -24 6 c-13 3 -31 9 -40 12 -10
4 -16 1 -17 -7z"/>
<path d="M4050 2412 c0 -47 1 -48 56 -56 22 -4 49 -8 61 -10 11 -3 38 -7 59
-10 22 -4 64 -11 94 -16 30 -5 70 -12 88 -14 33 -4 57 -16 31 -16 -17 0 -248
-71 -331 -101 l-58 -21 0 -54 c0 -30 3 -54 8 -54 4 0 48 -7 97 -16 115 -19
132 -22 180 -29 22 -4 47 -8 55 -10 17 -5 73 -15 110 -20 14 -2 32 -5 40 -7
11 -2 16 8 18 40 2 23 0 43 -5 43 -4 1 -17 3 -28 4 -11 2 -36 6 -55 9 -19 4
-51 9 -70 13 -19 3 -44 7 -55 9 -11 2 -38 6 -60 9 -22 4 -49 8 -60 10 -11 2
-29 4 -40 5 -11 1 -15 3 -10 5 6 2 82 26 170 55 235 75 215 63 215 126 0 61 3
59 -130 80 -53 8 -201 33 -235 40 -16 3 -39 7 -50 9 -11 1 -37 6 -57 10 l-38
7 0 -40z"/>
<path d="M4050 1791 l0 -151 36 -15 c20 -8 38 -15 40 -15 2 0 4 52 4 116 l0
116 40 -7 c22 -4 48 -8 58 -10 9 -2 22 -4 28 -4 7 -1 11 -36 12 -97 0 -53 2
-97 4 -99 2 -1 20 -5 41 -8 l37 -6 0 96 0 95 40 -7 c22 -4 48 -8 58 -10 9 -2
20 -4 23 -4 3 -1 6 -40 6 -88 1 -132 -2 -123 43 -123 l40 0 0 145 c0 131 -2
145 -17 146 -10 0 -29 2 -43 5 -135 23 -251 44 -280 48 -19 3 -46 8 -60 11
-14 3 -44 8 -67 11 l-43 6 0 -151z"/>
<path d="M4054 1504 c-43 -148 30 -282 146 -272 63 6 96 31 146 109 24 38 51
72 61 77 20 11 57 0 68 -19 15 -24 16 -86 2 -127 -15 -43 -15 -43 10 -53 58
-22 75 -2 79 96 3 61 -1 81 -19 116 -31 57 -77 82 -141 75 -57 -6 -83 -27
-133 -103 -55 -86 -103 -103 -138 -50 -18 28 -13 105 10 153 9 20 15 37 13 39
-2 2 -22 7 -45 11 l-42 6 -17 -58z"/>
<path d="M4073 1168 c-37 -47 -41 -181 -7 -239 31 -52 76 -78 133 -75 64 3 93
24 146 106 49 76 69 92 102 79 43 -16 55 -78 29 -152 -15 -42 -15 -43 35 -52
35 -6 36 -6 48 34 28 95 -4 207 -69 242 -73 40 -146 15 -203 -68 -43 -64 -82
-103 -102 -103 -9 0 -27 11 -40 24 -20 20 -23 32 -20 78 1 30 10 69 20 87 9
18 15 34 13 36 -2 2 -19 6 -39 10 -24 4 -39 2 -46 -7z"/>
</g>
</svg>
